<svg width="40" height="40" viewBox="0 0 40 40" fill="none" xmlns="http://www.w3.org/2000/svg">
<circle cx="20" cy="20" r="20" fill="black" fill-opacity="0.1"/>
<g clip-path="url(#clip0_70_564)">
<path d="M30.8434 19.9307L30.7144 20.2761C30.6431 20.4668 30.4313 20.5545 30.241 20.472L27.8302 19.4257C27.7624 19.3964 27.7122 19.3459 27.6715 19.2887C27.6003 19.218 27.5548 19.1219 27.5542 19.0161L27.5453 16.7391L25.7212 15.9325C25.538 15.8519 25.445 15.634 25.5136 15.4469L25.5215 15.4258C25.3959 15.3605 25.3073 15.2314 25.3068 15.0832L25.2987 12.9738L23.3354 12.1218C23.1452 12.0392 23.0487 11.8175 23.1197 11.6271L23.2487 11.2817C23.32 11.0911 23.5318 11.0033 23.7222 11.0858L26.1331 12.1321C26.2007 12.1615 26.251 12.2119 26.2916 12.269C26.363 12.3399 26.4084 12.4359 26.4091 12.5418L26.4186 15.0596L28.4168 15.943C28.58 16.0151 28.6648 16.1953 28.634 16.3663C28.6451 16.4012 28.6561 16.4365 28.6563 16.4747L28.6644 18.5839L30.6277 19.436C30.8179 19.5187 30.9144 19.7403 30.8434 19.9307ZM27.4617 24.2745L21.1114 28.7875C20.4737 29.2406 19.5964 29.0809 19.1519 28.4304L11.7078 17.5379C11.2632 16.8878 11.4197 15.9932 12.0573 15.54L18.4078 11.027C19.0453 10.5739 19.9226 10.7338 20.367 11.384L27.8115 22.2765C28.2559 22.927 28.0992 23.8214 27.4617 24.2745ZM26.7443 22.5975L19.7023 12.294C19.4801 11.9689 19.0414 11.8888 18.7226 12.1154L12.9495 16.2178C12.6307 16.4444 12.5525 16.8919 12.7748 17.217L19.8167 27.5207C20.0389 27.8458 20.4776 27.9257 20.7964 27.6991L26.5692 23.5967C26.888 23.3701 26.9665 22.9226 26.7443 22.5975ZM22.4756 23.8818C22.7946 23.6551 23.2331 23.7349 23.4553 24.06C23.6777 24.3853 23.5992 24.8326 23.2804 25.0592C22.9617 25.2858 22.523 25.2057 22.3008 24.8806C22.0785 24.5555 22.1568 24.1081 22.4756 23.8818ZM13.1602 22.5592C13.3424 22.5912 13.4858 22.7473 13.4866 22.9355L13.4948 25.1215L15.4333 25.9784C15.5307 26.0215 15.5998 26.1041 15.6354 26.1996L15.6426 26.1998C15.8475 26.2094 16.0141 26.3828 16.0149 26.5875L16.0248 29.1814C16.0256 29.3857 15.8601 29.544 15.6555 29.5344L15.2848 29.5171C15.08 29.5075 14.9134 29.3342 14.9126 29.1295L14.9044 26.9261L12.7377 25.9681C12.6549 25.9315 12.5939 25.8649 12.5544 25.7877C12.4548 25.7167 12.3848 25.6059 12.3844 25.4775L12.3755 23.2085L10.132 22.2349C10.0646 22.2055 10.014 22.155 9.9735 22.0979C9.90215 22.0271 9.85658 21.9311 9.85603 21.8256L9.84619 19.2317C9.8454 19.0271 10.0108 18.869 10.2154 18.8786L10.5861 18.896C10.791 18.9052 10.9576 19.0792 10.9583 19.2838L10.9666 21.3932L12.9298 22.2452C13.0609 22.3021 13.1423 22.4261 13.1602 22.5592Z" fill="black" fill-opacity="0.4"/>
<path d="M30.9839 19.9831L30.9839 19.9832L30.855 20.3286L30.8549 20.3287C30.7525 20.6023 30.4479 20.7253 30.1813 20.6096L27.7705 19.5634L30.9839 19.9831ZM30.9839 19.9831C31.0837 19.7157 30.9486 19.4119 30.6875 19.2985L30.6874 19.2984L28.814 18.4854L28.8063 16.4741L28.8063 16.4737C28.806 16.4278 28.7964 16.3859 28.7872 16.354C28.8106 16.1326 28.6967 15.9027 28.4774 15.8058L26.5682 14.9618L26.5591 12.5412L26.5591 12.5408C26.5581 12.3962 26.498 12.2671 26.4065 12.1719C26.3572 12.105 26.2894 12.0364 26.1928 11.9945L26.1928 11.9945L23.7819 10.9482L23.7818 10.9481C23.5152 10.8327 23.2106 10.9555 23.1082 11.2291L23.1081 11.2292L22.9792 11.5747L22.9792 11.5747C22.8794 11.8421 23.0145 12.146 23.2756 12.2594L23.2757 12.2594L25.1491 13.0724L25.1568 15.0837C25.1574 15.2474 25.2336 15.3914 25.3481 15.4887C25.3087 15.725 25.4355 15.9706 25.6607 16.0698C25.6607 16.0698 25.6607 16.0698 25.6608 16.0698L27.3957 16.8369L27.4042 19.0167L27.4042 19.0169M30.9839 19.9831L27.4042 19.0169M27.4042 19.0169C27.405 19.1617 27.4653 19.2909 27.5566 19.3859M27.4042 19.0169L27.5566 19.3859M13.6366 22.9349L13.6366 22.935L13.6444 25.0236L15.4939 25.8412L15.494 25.8412C15.6012 25.8887 15.6822 25.9686 15.7355 26.061C15.9788 26.1129 16.1639 26.3313 16.1649 26.5869L16.1649 26.587L16.1748 29.1808C16.1759 29.4712 15.9386 29.6978 15.6485 29.6843L15.2779 29.667L15.2778 29.667C14.9935 29.6536 14.7637 29.415 14.7626 29.1301L14.7626 29.1301L14.7548 27.0239L12.6771 26.1053C12.5692 26.0576 12.4907 25.9767 12.4383 25.8878C12.3215 25.7932 12.235 25.6497 12.2344 25.4781C12.2344 25.4781 12.2344 25.4781 12.2344 25.478L12.2259 23.307L10.0723 22.3725L10.0721 22.3724C9.97613 22.3306 9.90803 22.2622 9.85857 22.195C9.76723 22.1 9.70678 21.9708 9.70603 21.8263L9.70603 21.8261L9.6962 19.2323C9.6962 19.2323 9.6962 19.2323 9.6962 19.2323C9.69508 18.9416 9.93232 18.7152 10.2224 18.7288C10.2225 18.7288 10.2225 18.7288 10.2225 18.7288L10.5929 18.7461L10.5931 18.7461L10.5861 18.896L13.6366 22.9349ZM13.6366 22.9349C13.6356 22.7053 13.4859 22.5151 13.286 22.439M13.6366 22.9349L13.286 22.439M13.286 22.439C13.2404 22.2986 13.1396 22.1728 12.9895 22.1076L12.9895 22.1076L11.1162 21.2946L13.286 22.439ZM27.5566 19.3859C27.6059 19.4526 27.6736 19.5214 27.7704 19.5633L27.5566 19.3859ZM21.1983 28.9097L21.1114 28.7875L21.1983 28.9097L27.5486 24.3968L27.4617 24.2745L27.5486 24.3968C28.2535 23.8958 28.4253 22.9091 27.9353 22.1919L27.9353 22.1919L20.4908 11.2994L20.367 11.384L20.4908 11.2994C19.9996 10.5808 19.0276 10.4024 18.3209 10.9048C18.3209 10.9048 18.3209 10.9048 18.3209 10.9048L11.9704 15.4177L11.9704 15.4177C11.2654 15.9189 11.0937 16.9057 11.584 17.6226L19.0281 28.5151C19.5194 29.234 20.4914 29.412 21.1983 28.9097ZM18.8095 12.2376L18.8096 12.2376C19.0591 12.0603 19.403 12.1219 19.5785 12.3786L26.6204 22.6821C26.797 22.9405 26.7337 23.2957 26.4823 23.4744L20.7095 27.5769L20.7964 27.6991L20.7095 27.5769C20.4599 27.7542 20.1159 27.6927 19.9405 27.4361L12.8986 17.1323L12.8986 17.1323C12.7219 16.8739 12.7851 16.5187 13.0364 16.3401C13.0364 16.3401 13.0364 16.3401 13.0364 16.3401L18.8095 12.2376ZM23.5791 23.9754C23.3101 23.5818 22.7769 23.4837 22.3887 23.7595C22.0024 24.0338 21.9092 24.5735 22.1769 24.9652C22.4459 25.3587 22.9793 25.4573 23.3673 25.1815C23.7535 24.907 23.8472 24.3675 23.5791 23.9754L23.5791 23.9754Z" stroke="black" stroke-opacity="0.4" stroke-width="0.3"/>
</g>
<defs>
<clipPath id="clip0_70_564">
<rect width="24" height="24" fill="white" transform="translate(8 8)"/>
</clipPath>
</defs>
</svg>
