<svg width="40" height="40" viewBox="0 0 40 40" fill="none" xmlns="http://www.w3.org/2000/svg">
<circle cx="20" cy="20" r="20" fill="#E6E6FA"/>
<g clip-path="url(#clip0_88_3417)">
<path d="M30.8433 19.9307L30.7144 20.2761C30.643 20.4667 30.4313 20.5545 30.241 20.4719L27.8301 19.4257C27.7623 19.3963 27.7122 19.3458 27.6714 19.2887C27.6002 19.2179 27.5547 19.1219 27.5541 19.016L27.5453 16.739L25.7212 15.9325C25.538 15.8518 25.4449 15.6339 25.5135 15.4469L25.5215 15.4258C25.3958 15.3605 25.3073 15.2313 25.3067 15.0831L25.2987 12.9737L23.3353 12.1217C23.1451 12.0391 23.0487 11.8175 23.1197 11.6271L23.2486 11.2816C23.32 11.091 23.5317 11.0032 23.7221 11.0857L26.133 12.132C26.2007 12.1614 26.2509 12.2119 26.2915 12.269C26.3629 12.3398 26.4083 12.4358 26.409 12.5417L26.4185 15.0596L28.4167 15.9429C28.58 16.0151 28.6647 16.1953 28.634 16.3662C28.645 16.4011 28.656 16.4364 28.6563 16.4746L28.6643 18.5839L30.6277 19.436C30.8179 19.5186 30.9143 19.7402 30.8433 19.9307ZM27.4616 24.2745L21.1113 28.7874C20.4736 29.2405 19.5964 29.0808 19.1519 28.4304L11.7078 17.5378C11.2631 16.8877 11.4197 15.9932 12.0573 15.5399L18.4077 11.027C19.0452 10.5739 19.9225 10.7338 20.3669 11.384L27.8114 22.2765C28.2558 22.9269 28.0991 23.8214 27.4616 24.2745ZM26.7442 22.5974L19.7023 12.2939C19.48 11.9688 19.0414 11.8887 18.7226 12.1153L12.9494 16.2177C12.6306 16.4443 12.5525 16.8918 12.7747 17.2169L19.8166 27.5207C20.0388 27.8458 20.4775 27.9256 20.7963 27.6991L26.5691 23.5966C26.8879 23.37 26.9664 22.9226 26.7442 22.5974ZM22.4755 23.8817C22.7945 23.655 23.233 23.7349 23.4552 24.06C23.6776 24.3853 23.5991 24.8326 23.2804 25.0591C22.9617 25.2857 22.5229 25.2056 22.3007 24.8805C22.0785 24.5554 22.1567 24.108 22.4755 23.8817ZM13.1602 22.5591C13.3423 22.5911 13.4857 22.7473 13.4865 22.9355L13.4948 25.1214L15.4332 25.9783C15.5306 26.0215 15.5998 26.104 15.6354 26.1995L15.6426 26.1997C15.8474 26.2094 16.014 26.3827 16.0148 26.5875L16.0247 29.1813C16.0255 29.3856 15.8601 29.5439 15.6554 29.5344L15.2848 29.5171C15.0799 29.5074 14.9133 29.3341 14.9126 29.1295L14.9044 26.926L12.7376 25.968C12.6548 25.9314 12.5939 25.8649 12.5543 25.7876C12.4547 25.7166 12.3847 25.6059 12.3843 25.4775L12.3755 23.2084L10.132 22.2348C10.0645 22.2054 10.0139 22.155 9.97344 22.0978C9.90209 22.0271 9.85652 21.931 9.85597 21.8255L9.84613 19.2317C9.84534 19.027 10.0107 18.8689 10.2154 18.8786L10.586 18.8959C10.7909 18.9052 10.9575 19.0791 10.9583 19.2837L10.9665 21.3931L12.9297 22.2451C13.0608 22.3021 13.1422 22.426 13.1602 22.5591Z" fill="#A889C8" stroke="#A889C8"/>
</g>
<defs>
<clipPath id="clip0_88_3417">
<rect width="24" height="24" fill="white" transform="translate(8 8)"/>
</clipPath>
</defs>
</svg>
