<svg width="40" height="40" viewBox="0 0 40 40" fill="none" xmlns="http://www.w3.org/2000/svg">
<circle cx="20" cy="20" r="20" fill="black" fill-opacity="0.1"/>
<path d="M20 10C20.6319 10 21.143 10.4989 21.143 11.1157V12.5113C21.143 13.1281 20.6319 13.627 20 13.627C19.3681 13.627 18.857 13.1281 18.857 12.5113V11.1157C18.857 10.8191 18.9779 10.536 19.192 10.327C19.4061 10.118 19.6961 10 20 10ZM20 25.8968C20.6319 25.8968 21.143 26.3957 21.143 27.0125V28.4081C21.143 29.0249 20.6319 29.5238 20 29.5238C19.3681 29.5238 18.857 29.0249 18.857 28.4081V27.0125C18.857 26.3957 19.3681 25.8968 20 25.8968ZM30 19.7619C30 20.3788 29.4889 20.8776 28.857 20.8776H27.4275C26.7956 20.8776 26.2845 20.3788 26.2845 19.7619C26.2845 19.145 26.7956 18.6462 27.4275 18.6462H28.857C29.4889 18.6462 30 19.145 30 19.7619ZM13.7155 19.7619C13.7155 20.3788 13.2044 20.8776 12.5725 20.8776H11.143C10.511 20.8776 10 20.3788 10 19.7619C10 19.145 10.511 18.6462 11.143 18.6462H12.5725C12.8764 18.6462 13.1664 18.7641 13.3805 18.9731C13.5946 19.1821 13.7155 19.4653 13.7155 19.7619ZM27.0718 12.8585C27.178 12.962 27.2622 13.085 27.3197 13.2203C27.3772 13.3556 27.4068 13.5007 27.4068 13.6472C27.4068 13.7937 27.3772 13.9388 27.3197 14.0742C27.2622 14.2095 27.178 14.3325 27.0718 14.436L26.0601 15.4237C25.77 15.7068 25.3522 15.8147 24.9551 15.7135C24.7617 15.6622 24.5854 15.5624 24.4436 15.4241C24.3019 15.2857 24.1997 15.1136 24.1471 14.9248C24.0401 14.5405 24.154 14.1293 24.4441 13.8461L25.4558 12.8585C25.5619 12.7548 25.6878 12.6726 25.8265 12.6165C25.9651 12.5604 26.1137 12.5315 26.2638 12.5315C26.4139 12.5315 26.5625 12.5604 26.7012 12.6165C26.8398 12.6726 26.9658 12.7548 27.0718 12.8585ZM15.5559 24.1002C15.6621 24.2037 15.7464 24.3267 15.8038 24.462C15.8613 24.5973 15.8909 24.7424 15.8909 24.8889C15.8909 25.0354 15.8613 25.1805 15.8038 25.3159C15.7464 25.4512 15.6621 25.5742 15.5559 25.6777L14.5442 26.6654C14.0988 27.1002 13.3736 27.1002 12.9282 26.6654C12.4827 26.2305 12.4827 25.5226 12.9282 25.0878L13.9399 24.1002C14.046 23.9965 14.1719 23.9143 14.3106 23.8582C14.4492 23.8021 14.5978 23.7732 14.7479 23.7732C14.898 23.7732 15.0466 23.8021 15.1853 23.8582C15.3239 23.9143 15.4499 23.9965 15.5559 24.1002ZM27.0718 26.6654C26.9658 26.769 26.8398 26.8512 26.7012 26.9073C26.5625 26.9635 26.4139 26.9923 26.2638 26.9923C26.1137 26.9923 25.9651 26.9635 25.8265 26.9073C25.6878 26.8512 25.5619 26.769 25.4558 26.6654L24.4441 25.6777C23.9986 25.2429 23.9986 24.535 24.4441 24.1002C24.8895 23.6653 25.6146 23.6653 26.0601 24.1002L27.0718 25.0878C27.2859 25.2968 27.4068 25.5799 27.4068 25.8766C27.4068 26.1698 27.2859 26.4564 27.0718 26.6654ZM15.5559 15.4237C15.4499 15.5273 15.3239 15.6095 15.1853 15.6657C15.0466 15.7218 14.898 15.7506 14.7479 15.7506C14.5978 15.7506 14.4492 15.7218 14.3106 15.6657C14.1719 15.6095 14.046 15.5273 13.9399 15.4237L12.9282 14.436C12.4827 14.0012 12.4827 13.2933 12.9282 12.8585C13.3736 12.4236 14.0988 12.4236 14.5442 12.8585L15.5559 13.8461C15.77 14.0551 15.8909 14.3382 15.8909 14.6349C15.8909 14.9281 15.77 15.2147 15.5559 15.4237ZM20 23.9451C17.6347 23.9451 15.7148 22.0709 15.7148 19.7619C15.7148 17.4529 17.6347 15.5787 20 15.5787C22.3653 15.5787 24.2852 17.4529 24.2852 19.7619C24.2852 22.0709 22.3653 23.9451 20 23.9451Z" fill="black" fill-opacity="0.4"/>
</svg>
