<svg width="40" height="40" viewBox="0 0 40 40" fill="none" xmlns="http://www.w3.org/2000/svg">
<circle cx="20" cy="20" r="20" fill="#E6E6FA"/>
<path d="M12.4336 15.0296L12.4336 15.0299C12.5266 16.2385 13.5487 17.1667 14.7555 17.1667H14.9333V17.167L14.9407 17.1664L17.3371 16.9889C17.9316 16.9868 18.3264 16.4882 18.2333 15.9028C18.2287 15.3101 17.7298 14.9172 17.1449 15.0115L15.6712 15.0852C16.9504 14.0564 18.5265 13.4334 20.1778 13.4334C24.0337 13.4334 27.1889 16.5886 27.1889 20.4445C27.1889 24.3003 24.0337 27.4556 20.1778 27.4556C16.3219 27.4556 13.1667 24.3003 13.1667 20.4445C13.1667 20.1551 13.0698 19.9061 12.8929 19.7293C12.7161 19.5525 12.4672 19.4556 12.1778 19.4556C11.8884 19.4556 11.6394 19.5525 11.4626 19.7293C11.2858 19.9061 11.1889 20.1551 11.1889 20.4445C11.1889 25.3886 15.2337 29.4334 20.1778 29.4334C25.1216 29.4334 29.1662 25.3891 29.1667 20.4453C29.2561 15.4999 25.2101 11.4556 20.2667 11.4556C18.0834 11.4556 15.987 12.3032 14.387 13.668L14.2333 12.4381C14.2298 11.8451 13.7317 11.4515 13.1473 11.5445C12.5541 11.5491 12.1611 12.0487 12.2561 12.6341L12.4336 15.0296Z" fill="#A889C8" stroke="#A889C8" stroke-width="0.2"/>
</svg>
