<svg width="40" height="40" viewBox="0 0 40 40" fill="none" xmlns="http://www.w3.org/2000/svg">
<path d="M8.35938 25.2597C8.35937 26.9542 8.72889 28.6321 9.44681 30.1976C10.1647 31.763 11.217 33.1855 12.5436 34.3837C13.8701 35.5818 15.445 36.5323 17.1782 37.1807C18.9114 37.8292 20.7691 38.1629 22.6451 38.1629C24.5211 38.1629 26.3788 37.8292 28.112 37.1807C29.8452 36.5323 31.4201 35.5818 32.7466 34.3837C34.0732 33.1855 35.1254 31.763 35.8434 30.1976C36.5613 28.6321 36.9308 26.9542 36.9308 25.2597C36.9308 21.8376 35.4257 18.5556 32.7466 16.1357C30.0675 13.7159 26.4339 12.3565 22.6451 12.3565C18.8563 12.3565 15.2227 13.7159 12.5436 16.1357C9.86447 18.5556 8.35938 21.8376 8.35938 25.2597Z" fill="#A889C8"/>
<path d="M20.7617 37.2763C12.6328 37.2763 6.02344 31.3031 6.02344 23.9643C6.02344 16.6256 12.6367 10.6523 20.7617 10.6523C28.8867 10.6523 35.5 16.6256 35.5 23.9643C35.5 31.3031 28.8906 37.2763 20.7617 37.2763ZM20.7617 11.4921C13.1484 11.4921 6.95703 17.0843 6.95703 23.9608C6.95703 30.8373 13.1484 36.4296 20.7617 36.4296C28.375 36.4296 34.5664 30.8373 34.5664 23.9608C34.5664 17.0843 28.375 11.4921 20.7617 11.4921Z" fill="black"/>
<path d="M31.8086 8.5989C31.8086 9.25205 32.0959 9.87845 32.6072 10.3403C33.1185 10.8021 33.812 11.0616 34.5352 11.0616C35.2583 11.0616 35.9518 10.8021 36.4631 10.3403C36.9745 9.87845 37.2617 9.25205 37.2617 8.5989C37.2617 7.94575 36.9745 7.31935 36.4631 6.85751C35.9518 6.39566 35.2583 6.1362 34.5352 6.1362C33.812 6.1362 33.1185 6.39566 32.6072 6.85751C32.0959 7.31935 31.8086 7.94575 31.8086 8.5989Z" fill="#898EC9"/>
<path d="M34.5352 6.98297C35.5234 6.98297 36.3242 7.70979 36.3242 8.5989C36.3242 9.48801 35.5195 10.2148 34.5352 10.2148C33.5469 10.2148 32.7461 9.48801 32.7461 8.5989C32.7461 7.70979 33.5469 6.98297 34.5352 6.98297ZM34.5352 6.1362C33.0312 6.1362 31.8086 7.23701 31.8086 8.5989C31.8086 9.9608 33.0273 11.0616 34.5352 11.0616C36.0391 11.0616 37.2578 9.9608 37.2578 8.5989C37.2578 7.23701 36.0391 6.1362 34.5352 6.1362Z" fill="black"/>
<path d="M3.69531 12.2647C3.69531 12.5469 3.75684 12.8263 3.8764 13.087C3.99595 13.3477 4.17118 13.5846 4.39208 13.7841C4.61298 13.9836 4.87523 14.1419 5.16385 14.2499C5.45247 14.3579 5.76182 14.4134 6.07422 14.4134C6.38662 14.4134 6.69596 14.3579 6.98459 14.2499C7.27321 14.1419 7.53546 13.9836 7.75636 13.7841C7.97726 13.5846 8.15249 13.3477 8.27204 13.087C8.39159 12.8263 8.45312 12.5469 8.45312 12.2647C8.45312 11.6949 8.20249 11.1484 7.75636 10.7454C7.31023 10.3424 6.70514 10.1161 6.07422 10.1161C5.44329 10.1161 4.83821 10.3424 4.39208 10.7454C3.94595 11.1484 3.69531 11.6949 3.69531 12.2647Z" fill="#898EC9"/>
<path d="M6.07422 10.9593C6.87109 10.9593 7.51953 11.545 7.51953 12.2647C7.51953 12.9845 6.87109 13.5702 6.07422 13.5702C5.27734 13.5702 4.62891 12.9845 4.62891 12.2647C4.62891 11.545 5.27734 10.9593 6.07422 10.9593ZM6.07422 10.1161C4.76172 10.1161 3.69531 11.0793 3.69531 12.2647C3.69531 13.4502 4.76172 14.4134 6.07422 14.4134C7.38672 14.4134 8.45312 13.4502 8.45312 12.2647C8.45312 11.0793 7.38672 10.1161 6.07422 10.1161Z" fill="black"/>
<path d="M6.8034 13.8653L7.46355 13.2691L9.98813 15.5494L9.32797 16.1456L6.8034 13.8653ZM29.9814 14.4733L33.0834 10.2057L33.8638 10.6685L30.7618 14.9361L29.9814 14.4733ZM8.52734 37.7491H5.69922C4.55078 37.7491 3.61719 36.8247 3.61719 35.6851C3.61719 34.5455 4.55078 33.6246 5.69922 33.6246H11.875C12.1328 33.6246 12.3438 33.8152 12.3438 34.048C12.3438 34.2809 12.1328 34.4714 11.875 34.4714H5.69922C5.06641 34.4714 4.55078 35.0183 4.55078 35.6886C4.55078 36.359 5.06641 36.9059 5.69922 36.9059H8.52734C8.78516 36.9059 8.99609 37.0964 8.99609 37.3293C8.99609 37.5621 8.78516 37.7491 8.52734 37.7491ZM26.0469 37.0893C26 37.0893 25.9492 37.0823 25.9023 37.0682C15.7969 34.0692 8.83984 25.9366 8.1875 16.3504C8.17188 16.1176 8.36719 15.9165 8.625 15.9024C8.89844 15.8847 9.10547 16.0647 9.12109 16.2975C9.75 25.5379 16.4531 33.3741 26.1953 36.2673C26.4414 36.3414 26.5742 36.5778 26.4922 36.8C26.4258 36.9764 26.2422 37.0893 26.0469 37.0893Z" fill="black"/>
<path d="M29.2187 35.4699C29.1758 35.4699 29.1328 35.4664 29.0937 35.4558C18.5273 32.7743 10.9766 24.3313 10.3008 14.4381C10.2852 14.2053 10.4805 14.0042 10.7383 13.9901C11.0117 13.9724 11.2187 14.1524 11.2344 14.3852C11.8867 23.9185 19.1641 32.0581 29.3477 34.6408C29.5977 34.7043 29.7422 34.9371 29.6719 35.1629C29.6133 35.3464 29.4219 35.4699 29.2187 35.4699Z" fill="black"/>
<path d="M31.332 33.5611C31.2891 33.5611 31.2461 33.5576 31.207 33.547C20.6406 30.8691 13.0898 22.4225 12.4141 12.5329C12.3984 12.3 12.5937 12.0989 12.8516 12.0848C13.125 12.0672 13.332 12.2471 13.3477 12.48C14 22.0132 21.2773 30.1529 31.4609 32.7355C31.7109 32.799 31.8555 33.0319 31.7852 33.2577C31.7266 33.4376 31.5391 33.5611 31.332 33.5611Z" fill="black"/>
<path d="M33.4492 31.6488C33.4062 31.6488 33.3633 31.6453 33.3242 31.6347C23.2148 29.0732 15.6992 21.0183 14.6172 11.5908C14.5898 11.358 14.7773 11.1498 15.0352 11.1286C15.2891 11.1039 15.5234 11.2733 15.5469 11.5062C16.5898 20.5913 23.832 28.3534 33.5742 30.8232C33.8242 30.8867 33.9688 31.1196 33.8984 31.3454C33.8398 31.5288 33.6523 31.6488 33.4492 31.6488Z" fill="black"/>
<path d="M27.1641 28.7345C27.0508 28.7345 26.9336 28.6957 26.8437 28.6181C26.6562 28.4593 26.6484 28.1911 26.8242 28.0218C29.8906 25.0863 32.1289 21.3182 33.1289 17.4089C33.1875 17.1831 33.4375 17.0384 33.6914 17.0914C33.9453 17.1443 34.0977 17.3701 34.043 17.5994C33.0039 21.6533 30.6836 25.5626 27.5039 28.604C27.4141 28.6922 27.2891 28.7345 27.1641 28.7345ZM25.0312 27.669C24.9102 27.669 24.793 27.6266 24.6992 27.5455C24.5156 27.3797 24.5156 27.115 24.6992 26.9492C28.2773 23.7103 30.6562 19.6317 31.5703 15.1579C31.6172 14.9285 31.8633 14.7733 32.1133 14.8192C32.3672 14.8615 32.5352 15.0803 32.4883 15.3096C31.5391 19.9527 29.0742 24.1831 25.3594 27.5455C25.2695 27.6266 25.1484 27.669 25.0312 27.669Z" fill="black"/>
<path d="M23.2734 26.293C23.1562 26.293 23.0391 26.2541 22.9453 26.173C22.7617 26.0107 22.7578 25.7426 22.9375 25.5767C26.3242 22.4401 28.6953 18.2521 29.6094 13.7854C29.6562 13.5561 29.9023 13.4044 30.1523 13.4467C30.4062 13.489 30.5742 13.7078 30.5273 13.9371C29.5781 18.5697 27.1211 22.9129 23.6055 26.1659C23.5156 26.2506 23.3945 26.293 23.2734 26.293ZM18.3945 21.3111C18.3633 21.3111 18.3281 21.3076 18.293 21.3005C18.0391 21.2511 17.8828 21.0253 17.9375 20.796C18.7578 17.4371 18.9297 14.0218 18.4492 10.6453C18.418 10.4159 18.5977 10.2007 18.8555 10.1725C19.1094 10.1443 19.3477 10.3066 19.3789 10.5394C19.8711 14.0112 19.6953 17.5253 18.8516 20.9795C18.8008 21.177 18.6094 21.3111 18.3945 21.3111ZM20.7617 24.0102C20.7148 24.0102 20.668 24.0031 20.6211 23.989C20.375 23.9185 20.2383 23.6821 20.3164 23.4598C20.625 22.5848 20.8945 21.6886 21.1094 20.796C21.9297 17.4406 22.1016 14.0253 21.6211 10.6453C21.5898 10.4159 21.7695 10.2007 22.0273 10.1725C22.2695 10.1443 22.5195 10.3066 22.5508 10.5394C23.043 14.0147 22.8672 17.5288 22.0234 20.9795C21.8008 21.8933 21.5273 22.8177 21.207 23.7174C21.1445 23.8973 20.9609 24.0102 20.7617 24.0102Z" fill="black"/>
<path d="M22.875 25.6367C22.8125 25.6367 22.7539 25.6261 22.6914 25.605C22.4531 25.5132 22.3438 25.2662 22.4414 25.051C22.6719 24.5606 22.8906 24.1407 23.0898 23.7526C23.582 22.8071 23.9688 22.0626 24.2734 20.7995C25.0156 17.7582 25.2266 14.6604 24.9023 11.5908C24.8789 11.358 25.0664 11.1533 25.3242 11.1286C25.5781 11.1216 25.8086 11.2768 25.8359 11.5097C26.168 14.6675 25.9531 17.8534 25.1875 20.9795C24.8555 22.3343 24.4297 23.1564 23.9375 24.109C23.7383 24.49 23.5273 24.8993 23.3047 25.3792C23.2305 25.5415 23.0586 25.6367 22.875 25.6367ZM27.5469 20.9195C27.5195 20.9195 27.4961 20.9195 27.4727 20.9124C27.2188 20.8736 27.043 20.6584 27.0859 20.4291C27.5391 17.9205 27.6484 14.9144 27.3828 12.3953C27.3594 12.1624 27.5469 11.9578 27.8047 11.9331C28.0586 11.919 28.2891 12.0813 28.3164 12.3141C28.5898 14.9039 28.4766 17.9875 28.0117 20.5667C27.9688 20.7713 27.7695 20.9195 27.5469 20.9195ZM14.9453 36.3202C14.8516 36.3202 14.7578 36.2955 14.6719 36.2426C14.4609 36.105 14.4141 35.8439 14.5625 35.6533L17.207 32.3121C17.3594 32.1216 17.6484 32.0793 17.8594 32.2133C18.0703 32.3509 18.1172 32.612 17.9688 32.8025L15.3242 36.1438C15.2344 36.2602 15.0938 36.3202 14.9453 36.3202ZM12.832 35.364C12.7344 35.364 12.6367 35.3358 12.5508 35.2794C12.3438 35.1382 12.3008 34.8736 12.457 34.6866L15.6289 30.8655C15.7852 30.6785 16.0781 30.6433 16.2852 30.7809C16.4922 30.922 16.5352 31.1866 16.3789 31.3736L13.207 35.1947C13.1133 35.3076 12.9727 35.364 12.832 35.364ZM10.7383 33.801C10.6406 33.801 10.543 33.7728 10.4609 33.7164C10.2539 33.5752 10.2109 33.3141 10.3633 33.1271L13.7891 28.9603C13.9453 28.7733 14.2383 28.7345 14.4414 28.8721C14.6484 29.0132 14.6914 29.2743 14.5391 29.4613L11.1094 33.6281C11.0234 33.7411 10.8789 33.801 10.7383 33.801ZM8.86719 32.0016C8.76953 32.0016 8.67188 31.9734 8.58984 31.917C8.38281 31.7758 8.33984 31.5147 8.49219 31.3277L11.9219 27.1609C12.0781 26.9704 12.3711 26.9351 12.5742 27.0727C12.7813 27.2138 12.8242 27.4749 12.6719 27.6619L9.24219 31.8288C9.15235 31.9417 9.01172 32.0016 8.86719 32.0016ZM5.76172 23.7597C5.5586 23.7597 5.3711 23.6397 5.3125 23.4527C5.24219 23.2269 5.38281 22.9941 5.63281 22.9306L9.66016 21.8897C9.91016 21.8227 10.168 21.9568 10.2383 22.1791C10.3086 22.4049 10.168 22.6377 9.91797 22.7012L5.89063 23.7421C5.84766 23.7562 5.80469 23.7597 5.76172 23.7597ZM6.07422 25.919C5.87891 25.919 5.69531 25.8061 5.62891 25.6297C5.54688 25.4074 5.67969 25.171 5.92578 25.0969L10.2344 23.8161C10.4805 23.7421 10.7422 23.862 10.8242 24.0843C10.9063 24.3066 10.7734 24.543 10.5273 24.6171L6.22266 25.8978C6.17188 25.9154 6.1211 25.919 6.07422 25.919ZM6.74609 28.17C6.5625 28.17 6.38672 28.0712 6.3125 27.9054C6.21485 27.6901 6.33203 27.4432 6.57031 27.355L11.5273 25.5379C11.7656 25.4497 12.0391 25.5556 12.1367 25.7708C12.2344 25.986 12.1172 26.233 11.8789 26.3212L6.92188 28.1382C6.86328 28.1629 6.80469 28.17 6.74609 28.17Z" fill="black"/>
<path d="M7.60156 30.6115C7.42969 30.6115 7.26563 30.5233 7.18359 30.3751C7.07031 30.167 7.16406 29.9129 7.39453 29.8106L11.1914 28.1241C11.4219 28.0218 11.7031 28.1065 11.8164 28.3146C11.9297 28.5228 11.8359 28.7768 11.6055 28.8792L7.80859 30.5657C7.74219 30.5974 7.67188 30.6115 7.60156 30.6115ZM35.582 23.7597C35.5352 23.7597 35.4883 23.7527 35.4414 23.7421L31.7188 22.7012C31.4727 22.6307 31.3359 22.3943 31.4102 22.172C31.4844 21.9497 31.7461 21.8227 31.9961 21.8933L35.7188 22.9341C35.9648 23.0047 36.1016 23.2411 36.0273 23.4633C35.9688 23.6433 35.7852 23.7597 35.582 23.7597ZM35.2969 25.919C35.2422 25.919 35.1875 25.9119 35.1328 25.8943L30.5703 24.3595C30.3281 24.2784 30.2031 24.0349 30.2969 23.8162C30.3867 23.5974 30.6563 23.488 30.8984 23.5692L35.4609 25.104C35.7031 25.1851 35.8281 25.4286 35.7344 25.6473C35.6641 25.8167 35.4883 25.919 35.2969 25.919ZM35.0352 27.8348C34.9766 27.8348 34.9219 27.8242 34.8633 27.8066L29.4922 25.8908C29.2539 25.8061 29.1328 25.5591 29.2305 25.3439C29.3242 25.1287 29.5977 25.0193 29.8359 25.1075L35.2031 27.0198C35.4414 27.1045 35.5625 27.3514 35.4648 27.5667C35.3945 27.7325 35.2188 27.8348 35.0352 27.8348ZM34.5039 29.7683C34.4375 29.7683 34.3711 29.7542 34.3047 29.7295L28.3711 27.2244C28.1367 27.1256 28.0352 26.8751 28.1445 26.6634C28.2539 26.4517 28.5352 26.36 28.7656 26.4588L34.6992 28.9638C34.9336 29.0626 35.0352 29.3131 34.9258 29.5248C34.8477 29.6801 34.6797 29.7683 34.5039 29.7683Z" fill="black"/>
<path d="M29.1839 1.71209V6.2768L20.7213 5.51602V0.951301C25.3569 0.190515 25.4228 1.71209 29.1839 1.71209Z" fill="#FF2E04"/>
<path d="M29.184 1.71179V3.82678L25.6485 3.50725C24.8107 3.4323 24.0364 3.10983 23.4743 2.60162C22.9121 2.09342 22.6015 1.43523 22.6019 0.753204C25.5169 0.623871 26.0058 1.71179 29.184 1.71179Z" fill="#FF5C3C"/>
<path d="M19.781 12.363V0.951216C19.781 0.749443 19.8801 0.555934 20.0564 0.413259C20.2327 0.270584 20.4719 0.19043 20.7213 0.19043C20.9707 0.19043 21.2098 0.270584 21.3862 0.413259C21.5625 0.555934 21.6616 0.749443 21.6616 0.951216V12.363C21.6616 12.5648 21.5625 12.7583 21.3862 12.901C21.2098 13.0436 20.9707 13.1238 20.7213 13.1238C20.4719 13.1238 20.2327 13.0436 20.0564 12.901C19.8801 12.7583 19.781 12.5648 19.781 12.363Z" fill="#35214C"/>
<path d="M20.9094 6.2766C20.7712 6.29945 20.6284 6.29685 20.4916 6.26899C20.3548 6.24113 20.2276 6.18873 20.1192 6.11567C20.0108 6.04261 19.9242 5.95076 19.8656 5.84692C19.8071 5.74308 19.7782 5.62992 19.781 5.51582V0.951101C19.7766 0.773118 19.8495 0.599513 19.9869 0.460503C20.1244 0.321493 20.3177 0.225883 20.5333 0.190316C26.0528 -0.699804 24.8304 1.83361 23.4764 1.61299C22.8753 1.53532 22.2628 1.53532 21.6616 1.61299V4.65613C25.2066 4.37464 26.0058 5.8886 28.2437 5.66797V2.62483C24.1628 2.91393 25.1972 0.570709 26.5982 0.958709C27.3653 1.15989 28.1913 1.15989 28.9583 0.958709C29.0984 0.93068 29.2445 0.929087 29.3854 0.954052C29.5262 0.979018 29.6582 1.02987 29.7709 1.10268C29.8836 1.17549 29.9741 1.26831 30.0354 1.37395C30.0967 1.47958 30.1271 1.59521 30.1243 1.71189V6.2766C30.1306 6.45039 30.0631 6.62067 29.933 6.7591C29.803 6.89752 29.6183 6.99573 29.4097 7.03739C25.31 7.84382 25.1878 5.56907 20.9094 6.2766Z" fill="#35214C"/>
<path d="M21.6616 13.1238H19.781C19.5316 13.1238 19.2924 13.0436 19.1161 12.9009C18.9397 12.7583 18.8407 12.5648 18.8407 12.363C18.8407 12.1612 18.9397 11.9677 19.1161 11.825C19.2924 11.6824 19.5316 11.6022 19.781 11.6022H21.6616C21.911 11.6022 22.1501 11.6824 22.3265 11.825C22.5028 11.9677 22.6019 12.1612 22.6019 12.363C22.6019 12.5648 22.5028 12.7583 22.3265 12.9009C22.1501 13.0436 21.911 13.1238 21.6616 13.1238Z" fill="#35214C"/>
</svg>
