<svg width="14" height="16" viewBox="0 0 14 16" fill="none" xmlns="http://www.w3.org/2000/svg">
<path d="M11.16 0.959991C11.6692 0.959991 12.1576 1.16228 12.5176 1.52235C12.8777 1.88242 13.08 2.37078 13.08 2.87999V13.12C13.08 13.6292 12.8777 14.1176 12.5176 14.4776C12.1576 14.8377 11.6692 15.04 11.16 15.04H2.83998C2.33077 15.04 1.84241 14.8377 1.48234 14.4776C1.12227 14.1176 0.919983 13.6292 0.919983 13.12V2.87999C0.919983 2.37078 1.12227 1.88242 1.48234 1.52235C1.84241 1.16228 2.33077 0.959991 2.83998 0.959991H11.16ZM11.16 1.91999H2.83998C2.59512 1.91998 2.3595 2.01354 2.18134 2.18152C2.00318 2.34951 1.89595 2.57923 1.88158 2.82367L1.87998 2.87999V13.12C1.87997 13.3649 1.97353 13.6005 2.14151 13.7786C2.3095 13.9568 2.53922 14.064 2.78366 14.0784L2.83998 14.08H11.16C11.4049 14.08 11.6405 13.9864 11.8186 13.8185C11.9968 13.6505 12.104 13.4208 12.1184 13.1763L12.12 13.12V2.87999C12.12 2.63512 12.0264 2.39951 11.8585 2.22135C11.6905 2.04319 11.4607 1.93596 11.2163 1.92159L11.16 1.91999ZM7.79998 8.31999C7.92729 8.31999 8.04938 8.37056 8.13939 8.46058C8.22941 8.5506 8.27998 8.67269 8.27998 8.79999C8.27998 8.9273 8.22941 9.04939 8.13939 9.1394C8.04938 9.22942 7.92729 9.27999 7.79998 9.27999H3.63998C3.51268 9.27999 3.39059 9.22942 3.30057 9.1394C3.21055 9.04939 3.15998 8.9273 3.15998 8.79999C3.15998 8.67269 3.21055 8.5506 3.30057 8.46058C3.39059 8.37056 3.51268 8.31999 3.63998 8.31999H7.79998ZM10.36 4.79999C10.4873 4.79999 10.6094 4.85056 10.6994 4.94058C10.7894 5.0306 10.84 5.15269 10.84 5.27999C10.84 5.4073 10.7894 5.52939 10.6994 5.6194C10.6094 5.70942 10.4873 5.75999 10.36 5.75999H3.63998C3.51268 5.75999 3.39059 5.70942 3.30057 5.6194C3.21055 5.52939 3.15998 5.4073 3.15998 5.27999C3.15998 5.15269 3.21055 5.0306 3.30057 4.94058C3.39059 4.85056 3.51268 4.79999 3.63998 4.79999H10.36Z" fill="black" fill-opacity="0.4"/>
</svg>
